<svg xmlns="http://www.w3.org/2000/svg" version="1.1" xmlns:xlink="http://www.w3.org/1999/xlink" width="1000" height="1000"><g clip-path="url(#SvgjsClipPath1208)"><rect width="1000" height="1000" fill="#697dff"></rect><g transform="matrix(6.944444444444445,0,0,6.944444444444445,0,0)"><svg xmlns="http://www.w3.org/2000/svg" version="1.1" xmlns:xlink="http://www.w3.org/1999/xlink" width="144" height="144"><svg xmlns="http://www.w3.org/2000/svg" xmlns:xlink="http://www.w3.org/1999/xlink" width="144" zoomAndPan="magnify" viewBox="0 0 108 107.999999" height="144" preserveAspectRatio="xMidYMid meet" version="1.0"><defs><clipPath id="0d468514e4"><path d="M 57 53 L 78.304688 53 L 78.304688 82 L 57 82 Z M 57 53 " clip-rule="nonzero"></path></clipPath><clipPath id="8b499de81f"><path d="M 57 26 L 78.304688 26 L 78.304688 48 L 57 48 Z M 57 26 " clip-rule="nonzero"></path></clipPath><clipPath id="SvgjsClipPath1208"><rect width="1000" height="1000" x="0" y="0" rx="500" ry="500"></rect></clipPath></defs><rect x="-10.8" width="129.6" fill="#ffffff" y="-10.8" height="129.599998" fill-opacity="1"></rect><rect x="-10.8" width="129.6" fill="#697dff" y="-10.8" height="129.599998" fill-opacity="1"></rect><g clip-path="url(#0d468514e4)"><path fill="#ffffff" d="M 78.136719 81.414062 L 78.136719 53.074219 L 57.109375 53.074219 L 57.109375 66.171875 C 57.109375 80.078125 65.519531 81.792969 78.136719 81.414062 Z M 78.136719 81.414062 " fill-opacity="1" fill-rule="nonzero"></path></g><path fill="#ffffff" d="M 30.179688 81.414062 L 30.179688 53.074219 L 51.207031 53.074219 L 51.207031 66.171875 C 51.207031 80.078125 42.792969 81.792969 30.179688 81.414062 Z M 30.179688 81.414062 " fill-opacity="1" fill-rule="nonzero"></path><g clip-path="url(#8b499de81f)"><path fill="#ffffff" d="M 78.125 37.148438 C 78.125 37.820312 78.0625 38.488281 77.929688 39.148438 C 77.796875 39.808594 77.605469 40.449219 77.347656 41.070312 C 77.089844 41.691406 76.773438 42.28125 76.398438 42.839844 C 76.023438 43.398438 75.601562 43.917969 75.125 44.394531 C 74.648438 44.867188 74.128906 45.292969 73.570312 45.667969 C 73.011719 46.039062 72.417969 46.355469 71.796875 46.613281 C 71.175781 46.871094 70.535156 47.066406 69.875 47.195312 C 69.214844 47.328125 68.546875 47.394531 67.875 47.394531 C 67.199219 47.394531 66.535156 47.328125 65.875 47.195312 C 65.214844 47.066406 64.574219 46.871094 63.949219 46.613281 C 63.328125 46.355469 62.738281 46.039062 62.179688 45.667969 C 61.617188 45.292969 61.101562 44.867188 60.625 44.394531 C 60.148438 43.917969 59.722656 43.398438 59.347656 42.839844 C 58.976562 42.28125 58.660156 41.691406 58.402344 41.070312 C 58.144531 40.449219 57.949219 39.808594 57.820312 39.148438 C 57.6875 38.488281 57.621094 37.820312 57.621094 37.148438 C 57.621094 36.476562 57.6875 35.808594 57.820312 35.152344 C 57.949219 34.492188 58.144531 33.851562 58.402344 33.230469 C 58.660156 32.609375 58.976562 32.015625 59.347656 31.457031 C 59.722656 30.898438 60.148438 30.382812 60.625 29.90625 C 61.101562 29.429688 61.617188 29.003906 62.179688 28.632812 C 62.738281 28.257812 63.328125 27.941406 63.949219 27.683594 C 64.574219 27.425781 65.214844 27.234375 65.875 27.101562 C 66.535156 26.972656 67.199219 26.90625 67.875 26.90625 C 68.546875 26.90625 69.214844 26.972656 69.875 27.101562 C 70.535156 27.234375 71.175781 27.425781 71.796875 27.683594 C 72.417969 27.941406 73.011719 28.257812 73.570312 28.632812 C 74.128906 29.003906 74.648438 29.429688 75.125 29.90625 C 75.601562 30.382812 76.023438 30.898438 76.398438 31.457031 C 76.773438 32.015625 77.089844 32.609375 77.347656 33.230469 C 77.605469 33.851562 77.796875 34.492188 77.929688 35.152344 C 78.0625 35.808594 78.125 36.476562 78.125 37.148438 Z M 78.125 37.148438 " fill-opacity="1" fill-rule="nonzero"></path></g><path fill="#ffffff" d="M 51.078125 37.148438 C 51.078125 37.820312 51.011719 38.488281 50.882812 39.148438 C 50.75 39.808594 50.554688 40.449219 50.296875 41.070312 C 50.042969 41.691406 49.726562 42.28125 49.351562 42.839844 C 48.976562 43.398438 48.550781 43.917969 48.078125 44.394531 C 47.601562 44.867188 47.082031 45.292969 46.523438 45.667969 C 45.964844 46.039062 45.371094 46.355469 44.75 46.613281 C 44.128906 46.871094 43.488281 47.066406 42.828125 47.195312 C 42.167969 47.328125 41.5 47.394531 40.828125 47.394531 C 40.152344 47.394531 39.488281 47.328125 38.828125 47.195312 C 38.167969 47.066406 37.523438 46.871094 36.902344 46.613281 C 36.28125 46.355469 35.691406 46.039062 35.128906 45.667969 C 34.570312 45.292969 34.054688 44.867188 33.578125 44.394531 C 33.101562 43.917969 32.675781 43.398438 32.300781 42.839844 C 31.929688 42.28125 31.613281 41.691406 31.355469 41.070312 C 31.097656 40.449219 30.902344 39.808594 30.769531 39.148438 C 30.640625 38.488281 30.574219 37.820312 30.574219 37.148438 C 30.574219 36.476562 30.640625 35.808594 30.769531 35.152344 C 30.902344 34.492188 31.097656 33.851562 31.355469 33.230469 C 31.613281 32.609375 31.929688 32.015625 32.300781 31.457031 C 32.675781 30.898438 33.101562 30.382812 33.578125 29.90625 C 34.054688 29.429688 34.570312 29.003906 35.128906 28.632812 C 35.691406 28.257812 36.28125 27.941406 36.902344 27.683594 C 37.523438 27.425781 38.167969 27.234375 38.828125 27.101562 C 39.488281 26.972656 40.152344 26.90625 40.828125 26.90625 C 41.5 26.90625 42.167969 26.972656 42.828125 27.101562 C 43.488281 27.234375 44.128906 27.425781 44.75 27.683594 C 45.371094 27.941406 45.964844 28.257812 46.523438 28.632812 C 47.082031 29.003906 47.601562 29.429688 48.078125 29.90625 C 48.550781 30.382812 48.976562 30.898438 49.351562 31.457031 C 49.726562 32.015625 50.042969 32.609375 50.296875 33.230469 C 50.554688 33.851562 50.75 34.492188 50.882812 35.152344 C 51.011719 35.808594 51.078125 36.476562 51.078125 37.148438 Z M 51.078125 37.148438 " fill-opacity="1" fill-rule="nonzero"></path></svg></svg></g></g></svg>